<?xml version="1.0" standalone="no"?>
<!DOCTYPE svg PUBLIC "-//W3C//DTD SVG 20010904//EN"
 "http://www.w3.org/TR/2001/REC-SVG-20010904/DTD/svg10.dtd">
<svg version="1.0" xmlns="http://www.w3.org/2000/svg"
 width="582.000000pt" height="582.000000pt" viewBox="0 0 582.000000 582.000000"
 preserveAspectRatio="xMidYMid meet">
<metadata>
Created by potrace 1.14, written by Peter Selinger 2001-2017
</metadata>
<g transform="translate(0.000000,582.000000) scale(0.100000,-0.100000)"
fill="#000000" stroke="none">
<path d="M290 4544 l0 -185 168 1 c92 1 173 1 180 1 9 -1 12 -344 12 -1682 l0
-1680 198 3 197 3 0 1672 c0 919 3 1674 7 1678 4 4 86 7 182 7 l176 -1 0 185
0 184 -560 0 -560 0 0 -186z"/>
<path d="M1602 4544 l0 -185 152 1 c83 1 165 1 181 1 l30 -1 0 -1490 c0 -986
-3 -1490 -10 -1491 -5 -1 -86 -2 -180 -3 l-170 -1 -1 -187 -1 -187 561 0 561
1 0 177 c0 97 -3 181 -7 186 -4 7 -69 11 -182 10 l-176 -1 0 50 c-1 28 -1 783
-1 1679 l-1 1627 -378 0 -378 0 0 -186z"/>
<path d="M2990 4546 l0 -184 180 1 c112 1 181 -2 183 -8 2 -5 3 -678 3 -1495
l-1 -1485 -170 -1 c-94 -1 -176 -2 -182 -3 -10 -1 -13 -45 -13 -185 l0 -184
563 0 562 -1 -1 182 c-1 100 -2 184 -3 187 0 3 -82 5 -181 5 l-180 -1 0 1678
0 1678 -380 0 -380 0 0 -184z"/>
<path d="M4410 2866 l0 -1865 194 -1 194 -1 0 1408 c1 774 1 1419 1 1433 1 33
14 15 35 -52 11 -32 23 -55 29 -51 6 3 7 1 3 -6 -9 -14 53 -193 64 -186 5 3 7
-3 5 -12 -2 -16 10 -53 40 -128 4 -11 9 -27 11 -35 2 -8 7 -23 13 -35 5 -11
23 -60 40 -108 l31 -88 0 -1068 0 -1068 198 -1 197 0 0 1861 0 1862 -197 3
-198 2 -2 -484 -3 -485 -89 252 c-49 139 -92 254 -95 257 -3 3 -6 10 -6 15 -1
25 -39 124 -47 119 -4 -3 -5 2 -2 11 4 8 0 23 -7 32 -8 9 -13 19 -12 22 4 13
-10 51 -19 51 -5 0 -7 4 -4 8 3 5 -10 51 -28 103 l-33 94 -157 3 -156 3 0
-1865z"/>
</g>
</svg>
