<?xml version="1.0" standalone="no"?>
<!DOCTYPE svg PUBLIC "-//W3C//DTD SVG 20010904//EN"
 "http://www.w3.org/TR/2001/REC-SVG-20010904/DTD/svg10.dtd">
<svg version="1.0" xmlns="http://www.w3.org/2000/svg"
 width="700.000000pt" height="700.000000pt" viewBox="0 0 700.000000 700.000000"
 preserveAspectRatio="xMidYMid meet">
<metadata>
Created by potrace 1.14, written by Peter Selinger 2001-2017
</metadata>
<g transform="translate(0.000000,700.000000) scale(0.100000,-0.100000)"
fill="#000000" stroke="none">
<path d="M370 5692 l-26 -3 1 -219 0 -220 216 0 c204 0 217 -1 222 -19 2 -10
2 -24 -2 -29 -4 -6 -5 -57 -4 -114 2 -57 3 -110 3 -118 -1 -24 -1 -83 -1 -105
1 -23 1 -353 1 -375 -1 -30 -1 -85 -1 -105 1 -23 1 -353 1 -375 -1 -28 -1 -85
-1 -105 0 -11 0 -38 0 -60 0 -22 0 -49 0 -60 1 -11 0 -45 0 -75 0 -30 0 -66 0
-80 0 -14 0 -50 0 -80 0 -30 0 -66 0 -80 0 -14 0 -50 0 -80 0 -30 0 -66 0 -80
1 -24 2 -389 1 -420 -1 -32 -1 -86 -1 -105 1 -22 1 -510 1 -535 -1 -30 -1 -85
-1 -105 1 -11 0 -69 0 -130 -1 -60 -1 -123 0 -140 0 -16 0 -55 0 -85 0 -30 0
-66 0 -80 0 -14 0 -50 0 -80 0 -30 0 -66 0 -80 0 -14 0 -50 0 -80 0 -30 0 -66
0 -80 1 -14 0 -59 -1 -100 l-2 -75 240 -3 239 -2 0 2020 0 2020 218 0 217 0
-2 222 -3 221 -645 1 c-355 1 -656 0 -670 -2z"/>
<path d="M1925 5688 c-7 -25 -11 -78 -6 -78 7 0 5 -99 -2 -106 -3 -3 -2 -18 3
-33 4 -16 4 -34 0 -41 -4 -7 -4 -25 0 -40 4 -15 4 -34 -1 -43 -5 -8 -6 -18 -1
-21 10 -6 8 -48 -2 -64 -6 -10 29 -13 161 -12 263 1 285 1 279 -9 -4 -5 0 -12
6 -14 10 -4 9 -6 -1 -6 -11 -1 -11 -4 -1 -16 7 -8 8 -15 3 -15 -5 0 -9 -9 -9
-20 0 -11 4 -20 9 -20 5 0 4 -7 -3 -15 -10 -12 -10 -15 1 -15 9 0 10 -3 4 -8
-14 -10 -14 -52 -1 -52 6 0 4 -5 -4 -10 -13 -9 -13 -11 0 -20 11 -7 11 -10 2
-10 -9 0 -10 -5 -3 -18 6 -11 6 -24 1 -32 -5 -9 -5 -19 2 -27 6 -8 6 -13 1
-13 -5 0 -10 -7 -10 -15 0 -8 5 -15 11 -15 6 0 4 -5 -4 -10 -13 -9 -13 -11 0
-20 10 -6 11 -10 3 -10 -9 0 -10 -7 -3 -24 5 -15 5 -27 -3 -35 -8 -8 -7 -11 4
-11 11 0 11 -2 1 -9 -8 -4 -14 -12 -14 -16 0 -4 6 -12 14 -16 11 -7 11 -9 -1
-9 -11 0 -11 -3 -1 -15 7 -8 8 -15 3 -15 -5 0 -9 -9 -9 -20 0 -11 4 -20 9 -20
5 0 4 -7 -3 -15 -10 -12 -10 -15 1 -15 9 0 10 -3 4 -8 -12 -8 -13 -32 -2 -49
5 -8 3 -13 -4 -13 -10 0 -10 -3 -2 -11 8 -8 8 -20 3 -35 -7 -17 -6 -24 3 -24
8 0 7 -4 -3 -10 -13 -9 -13 -11 0 -20 10 -6 11 -10 3 -10 -9 0 -10 -7 -3 -25
6 -16 6 -26 -1 -31 -8 -4 -7 -9 2 -15 9 -6 10 -9 2 -9 -12 0 -12 -17 0 -37 4
-6 3 -15 -3 -18 -8 -5 -8 -11 0 -20 8 -10 8 -15 -1 -20 -8 -6 -7 -10 2 -16 12
-7 12 -9 0 -9 -11 0 -11 -3 -1 -15 7 -8 8 -15 3 -15 -5 0 -9 -9 -9 -20 0 -11
4 -20 9 -20 5 0 4 -7 -3 -15 -10 -12 -10 -15 1 -15 9 0 10 -3 4 -8 -14 -10
-14 -52 -1 -52 6 0 4 -5 -4 -10 -13 -9 -13 -11 0 -20 11 -7 11 -10 2 -10 -9 0
-10 -5 -3 -18 6 -11 6 -24 1 -32 -5 -9 -5 -19 2 -27 6 -8 6 -13 1 -13 -5 0
-10 -7 -10 -15 0 -8 5 -15 11 -15 6 0 4 -5 -4 -10 -13 -9 -13 -11 0 -20 10 -6
11 -10 3 -10 -9 0 -10 -7 -3 -24 5 -15 5 -27 -3 -35 -8 -8 -7 -11 3 -11 12 0
12 -2 2 -9 -8 -4 -14 -12 -14 -16 0 -4 6 -12 14 -16 11 -7 11 -9 -1 -9 -11 0
-11 -3 -1 -15 7 -8 8 -15 3 -15 -5 0 -9 -9 -9 -20 0 -11 4 -20 9 -20 5 0 4 -7
-3 -15 -10 -12 -10 -15 1 -15 9 0 10 -3 4 -8 -12 -8 -13 -32 -2 -49 5 -8 3
-13 -4 -13 -10 0 -10 -3 -2 -11 8 -8 8 -20 3 -35 -7 -17 -6 -24 3 -24 8 0 7
-4 -3 -10 -13 -9 -13 -11 0 -20 10 -6 11 -10 3 -10 -9 0 -10 -7 -3 -25 6 -16
6 -26 -1 -31 -8 -4 -7 -9 2 -15 9 -6 10 -9 2 -9 -12 0 -12 -17 0 -37 4 -6 3
-15 -3 -18 -8 -5 -8 -11 0 -20 8 -10 8 -15 -1 -20 -8 -6 -7 -10 2 -16 12 -7
12 -9 0 -9 -11 0 -11 -3 -1 -15 7 -8 8 -15 3 -15 -5 0 -9 -9 -9 -20 0 -11 4
-20 9 -20 5 0 4 -7 -3 -15 -10 -12 -10 -15 1 -15 9 0 10 -3 4 -8 -14 -10 -14
-52 -1 -52 6 0 4 -5 -4 -10 -13 -9 -13 -11 0 -20 11 -7 11 -10 2 -10 -9 0 -10
-5 -3 -18 6 -11 6 -24 1 -32 -5 -9 -5 -19 2 -27 6 -8 6 -13 1 -13 -5 0 -10 -7
-10 -15 0 -8 5 -15 11 -15 6 0 4 -5 -4 -10 -13 -9 -13 -11 0 -20 10 -6 11 -10
3 -10 -9 0 -10 -7 -3 -25 6 -16 6 -26 -1 -31 -8 -4 -7 -9 2 -15 10 -6 11 -9 1
-9 -14 0 -12 -21 3 -32 6 -5 5 -8 -4 -8 -11 0 -11 -3 -1 -15 7 -8 8 -15 3 -15
-5 0 -9 -9 -9 -20 0 -11 4 -20 9 -20 5 0 4 -7 -3 -15 -10 -12 -10 -15 1 -15 9
0 10 -3 4 -8 -12 -8 -13 -32 -2 -49 5 -8 3 -13 -4 -13 -10 0 -10 -3 -2 -11 8
-8 8 -20 3 -35 -7 -17 -6 -24 3 -24 8 0 7 -4 -3 -10 -13 -9 -13 -11 0 -20 10
-6 11 -10 3 -10 -9 0 -10 -7 -3 -25 6 -16 6 -26 -1 -31 -8 -4 -7 -9 2 -15 9
-6 10 -9 2 -9 -12 0 -12 -17 0 -37 4 -6 3 -15 -3 -18 -8 -5 -8 -11 0 -20 8
-10 8 -15 -1 -20 -8 -6 -7 -10 2 -16 12 -7 12 -9 0 -9 -11 0 -11 -3 -1 -15 7
-8 8 -15 3 -15 -5 0 -9 -9 -9 -20 0 -11 4 -20 9 -20 5 0 4 -7 -3 -15 -10 -12
-10 -15 1 -15 9 0 10 -3 4 -8 -14 -10 -14 -52 -1 -52 6 0 4 -5 -4 -10 -13 -9
-13 -11 0 -20 11 -7 11 -10 2 -10 -9 0 -10 -5 -3 -18 6 -11 6 -24 1 -32 -5 -9
-5 -19 2 -27 6 -8 6 -13 1 -13 -5 0 -10 -7 -10 -15 0 -8 5 -15 11 -15 6 0 4
-5 -4 -10 -13 -9 -13 -11 0 -20 10 -6 11 -10 3 -10 -9 0 -10 -7 -3 -25 6 -16
6 -26 -1 -31 -8 -4 -7 -9 2 -15 9 -6 10 -9 2 -9 -12 0 -12 -17 0 -37 5 -8 3
-13 -4 -13 -10 0 -10 -3 -2 -11 8 -8 8 -20 3 -35 -7 -17 -6 -24 3 -24 8 0 7
-4 -3 -10 -13 -9 -13 -11 0 -20 12 -8 12 -10 1 -10 -11 0 -11 -3 -1 -15 7 -8
8 -15 3 -15 -5 0 -8 -14 -7 -30 2 -26 0 -29 -12 -19 -8 6 -14 7 -14 2 0 -5 -9
-9 -20 -10 -11 -1 -20 4 -20 10 0 7 -4 6 -10 -3 -8 -12 -10 -12 -10 -1 0 11
-3 11 -17 0 -13 -11 -17 -11 -20 -1 -3 6 -9 10 -14 6 -17 -10 -49 -13 -49 -3
0 5 -5 9 -11 9 -5 0 -8 -4 -5 -8 6 -10 -35 -10 -50 0 -6 4 -14 4 -18 1 -3 -4
-40 -7 -81 -7 -68 -1 -111 -15 -87 -30 5 -3 6 -22 2 -45 -4 -22 -4 -45 1 -52
4 -7 3 -23 -1 -35 -5 -13 -5 -26 -1 -28 5 -3 5 -20 2 -38 -4 -18 -4 -47 0 -64
3 -18 3 -38 -2 -45 -4 -7 -5 -18 -2 -23 4 -6 6 -27 4 -48 l-2 -38 673 3 673 2
0 97 c0 54 3 98 8 98 4 0 7 5 7 11 0 5 -4 8 -9 4 -6 -3 -6 6 -1 25 5 19 5 28
-1 25 -5 -4 -9 -1 -9 4 0 6 5 11 12 11 9 0 9 3 0 12 -15 15 -16 31 0 22 7 -5
8 -3 2 7 -14 24 -16 51 -2 43 10 -5 10 -4 1 6 -6 7 -9 19 -6 28 5 11 3 13 -8
7 -12 -8 -12 -6 0 8 8 10 11 20 7 24 -3 3 -6 0 -6 -8 0 -12 -2 -12 -10 1 -7
11 -30 15 -94 15 -47 0 -88 4 -92 8 -4 4 -13 2 -21 -4 -9 -9 -13 -8 -13 0 0 9
-5 9 -20 1 -15 -8 -20 -8 -20 1 0 8 -4 9 -13 0 -10 -8 -17 -7 -26 2 -9 9 -14
9 -22 -3 -8 -11 -12 -12 -15 -3 -4 9 -13 9 -30 2 -43 -16 -52 5 -53 117 -2
455 -1 957 1 959 2 2 1 47 -2 100 -3 53 -2 99 3 102 4 2 5 8 2 13 -3 5 -5 623
-5 1374 0 751 -3 1366 -7 1367 -5 0 -18 2 -31 3 -13 2 -25 -1 -28 -6 -3 -5
-12 -4 -20 3 -11 9 -14 9 -14 0 0 -8 -5 -9 -19 -1 -14 7 -22 7 -26 0 -5 -8
-11 -7 -21 1 -11 9 -14 9 -14 0 0 -8 -5 -9 -19 -1 -14 7 -22 7 -26 0 -5 -8
-11 -7 -21 1 -9 7 -14 8 -14 1 0 -7 -10 -8 -30 -2 -21 6 -30 5 -30 -3 0 -8 -3
-8 -12 1 -8 8 -17 8 -31 1 -11 -6 -17 -7 -14 -2 7 10 -76 9 -93 -2 -5 -3 -10
-3 -10 2 0 4 -18 8 -40 8 -22 0 -40 -4 -40 -9 0 -6 -5 -5 -12 2 -8 8 -17 8
-31 1 -11 -6 -17 -7 -14 -2 3 5 -10 9 -28 9 -19 -1 -35 -5 -35 -10 0 -6 -5 -5
-12 2 -8 8 -17 8 -31 1 -11 -6 -17 -7 -14 -2 3 4 -14 8 -38 8 -24 0 -42 -2
-40 -5 2 -3 -12 -5 -31 -5 -19 0 -34 3 -34 8 0 12 -20 8 -25 -5z"/>
<path d="M3610 5691 c0 -7 -4 -9 -10 -6 -6 4 -10 -70 -10 -214 l1 -220 167 0
c301 0 269 3 274 -31 3 -16 2 -30 -2 -30 -3 0 -3 -27 0 -60 3 -33 3 -60 0 -60
-3 0 -3 -27 0 -60 3 -33 3 -60 -1 -60 -4 0 -4 -13 1 -30 5 -19 5 -30 -1 -30
-6 0 -5 -8 1 -20 8 -14 8 -20 0 -20 -8 0 -8 -6 0 -20 8 -14 8 -20 0 -20 -8 0
-8 -6 0 -20 6 -11 7 -20 2 -20 -5 0 -6 -22 -2 -50 4 -27 4 -50 1 -50 -3 0 -4
-36 -1 -80 3 -44 3 -80 0 -80 -3 0 -3 -36 0 -80 3 -44 3 -80 0 -80 -3 0 -3
-36 0 -80 3 -44 2 -80 -1 -80 -3 0 -3 -22 1 -50 4 -27 3 -50 -2 -50 -5 0 -4
-9 2 -20 8 -14 8 -20 0 -20 -8 0 -8 -6 0 -20 8 -14 8 -20 0 -20 -8 0 -8 -6 0
-20 6 -12 7 -20 1 -20 -6 0 -6 -11 -1 -30 5 -16 5 -30 1 -30 -4 0 -4 -27 -1
-60 3 -33 3 -60 0 -60 -3 0 -3 -27 0 -60 3 -33 3 -60 -1 -60 -4 0 -4 -13 1
-30 5 -19 5 -30 -1 -30 -6 0 -5 -8 1 -20 8 -14 8 -20 0 -20 -8 0 -8 -6 0 -20
8 -14 8 -20 0 -20 -8 0 -8 -6 0 -20 6 -11 7 -20 2 -20 -5 0 -6 -22 -2 -50 4
-27 4 -50 1 -50 -3 0 -4 -36 -1 -80 3 -44 3 -80 0 -80 -3 0 -3 -36 0 -80 3
-44 3 -80 0 -80 -3 0 -3 -36 0 -80 3 -44 2 -80 -1 -80 -3 0 -3 -22 1 -50 4
-27 3 -50 -2 -50 -5 0 -4 -9 2 -20 8 -14 8 -20 0 -20 -8 0 -8 -6 0 -20 8 -14
8 -20 0 -20 -8 0 -8 -6 0 -20 6 -12 7 -20 1 -20 -6 0 -6 -11 -1 -30 5 -16 5
-30 1 -30 -4 0 -4 -27 -1 -60 3 -33 3 -60 0 -60 -3 0 -3 -27 0 -60 3 -33 3
-60 -1 -60 -4 0 -4 -13 1 -30 5 -19 5 -30 -1 -30 -6 0 -5 -8 1 -20 8 -14 8
-20 0 -20 -8 0 -8 -6 0 -20 8 -14 8 -20 0 -20 -8 0 -8 -6 0 -20 6 -11 7 -20 2
-20 -5 0 -6 -22 -2 -50 4 -27 4 -50 1 -50 -3 0 -4 -36 -1 -80 3 -44 2 -80 -1
-80 -3 0 -3 -22 1 -50 4 -27 3 -50 -2 -50 -5 0 -4 -9 2 -20 8 -14 8 -20 0 -20
-8 0 -8 -6 0 -20 8 -14 8 -20 0 -20 -8 0 -8 -6 0 -20 8 -14 8 -20 0 -20 -6 0
-8 -5 -5 -11 13 -20 12 -58 -1 -63 -8 -3 -14 0 -14 7 0 8 -4 6 -10 -3 -7 -11
-10 -11 -10 -2 0 9 -5 10 -18 3 -11 -6 -24 -6 -36 1 -11 6 -16 6 -13 1 3 -5 0
-10 -8 -10 -8 0 -12 4 -9 9 3 4 1 8 -5 8 -5 0 -12 -6 -15 -12 -5 -10 -7 -10
-12 -1 -4 9 -13 9 -31 2 -15 -5 -29 -6 -32 -2 -5 7 -28 9 -41 3 -16 -7 -60 -5
-60 2 0 5 -6 6 -12 1 -7 -4 -26 -8 -43 -9 -71 -3 -65 19 -65 -224 l1 -219 673
-1 673 0 2 52 c2 29 4 67 4 83 1 17 -1 40 -5 53 -5 15 -4 21 2 17 6 -3 10 -2
10 4 0 5 -5 13 -10 16 -7 4 -6 14 1 28 9 16 9 22 0 25 -6 2 -8 9 -4 15 12 20
13 46 2 52 -7 5 -6 11 2 21 6 8 7 14 2 14 -6 0 -9 15 -8 33 l2 32 -103 0 c-57
0 -104 4 -104 9 0 5 -7 2 -17 -5 -13 -11 -17 -11 -20 -1 -3 6 -10 9 -16 5 -17
-10 -38 -13 -32 -4 2 5 -7 7 -20 5 -14 -2 -36 -6 -50 -8 -14 -2 -25 1 -25 6 0
5 -9 4 -19 -1 -14 -8 -20 -7 -23 2 -2 6 -4 173 -4 369 1 198 -3 358 -8 358 -5
0 -4 6 1 13 11 14 9 149 -2 168 -5 7 -4 10 3 5 7 -4 10 1 9 14 -1 11 -5 20
-10 20 -4 0 -5 6 -1 12 12 19 12 48 1 48 -5 0 -4 7 4 16 10 13 10 17 0 24 -11
6 -11 9 0 13 11 4 11 6 1 6 -8 1 -10 6 -6 13 12 19 12 48 1 48 -5 0 -4 7 4 16
10 13 10 17 -1 24 -10 6 -11 12 -3 22 6 7 7 22 3 33 -4 11 -3 28 2 39 7 13 6
21 -3 27 -9 5 -10 11 -2 21 6 7 7 22 3 33 -4 11 -3 28 2 39 6 10 6 21 2 25
-11 7 -15 41 -5 41 4 0 6 16 6 35 0 19 -4 35 -8 35 -4 0 -3 10 4 21 6 12 7 24
3 28 -11 8 -14 41 -5 41 4 0 8 7 8 15 0 8 -4 15 -9 15 -5 0 -4 10 3 21 6 12 7
24 3 28 -12 8 -14 41 -3 41 6 0 6 7 0 18 -6 11 -6 24 1 36 8 13 7 21 -3 26 -9
6 -10 12 -2 22 6 7 7 22 3 33 -4 11 -3 29 3 40 7 13 7 20 -2 23 -6 2 -11 8
-11 13 0 6 4 8 9 5 4 -3 6 7 4 22 -6 41 -6 46 2 65 4 9 3 17 -2 17 -5 0 -9 9
-9 20 0 11 3 20 6 20 3 0 5 18 5 40 0 22 -4 40 -9 40 -5 0 -3 7 5 16 10 13 10
17 0 24 -11 6 -11 9 0 13 11 4 11 6 1 6 -8 1 -10 6 -6 13 12 19 12 48 1 48 -5
0 -4 7 4 16 10 13 10 17 0 24 -11 6 -11 9 0 13 11 4 11 6 1 6 -8 1 -10 6 -6
13 12 19 12 48 1 48 -5 0 -4 7 4 16 10 13 10 17 0 24 -11 6 -11 9 0 13 11 4
11 6 1 6 -8 1 -10 6 -6 13 12 19 12 48 1 48 -5 0 -4 7 4 16 10 13 10 17 0 24
-11 6 -11 9 0 13 11 4 11 6 1 6 -8 1 -10 6 -6 13 12 19 12 48 1 48 -5 0 -4 7
4 16 10 13 10 17 -2 25 -12 7 -12 9 1 9 12 0 12 2 1 9 -7 5 -9 11 -4 14 11 7
8 91 -3 109 -4 6 -3 8 4 4 7 -4 10 1 9 14 -1 11 -5 20 -10 20 -4 0 -5 6 0 13
10 16 11 28 1 55 -5 14 -4 21 1 17 6 -3 9 4 8 15 -1 11 -5 20 -10 20 -4 0 -5
6 0 13 10 16 11 28 1 55 -5 14 -4 21 1 17 6 -3 9 4 8 15 -1 11 -5 20 -10 20
-5 0 -3 7 4 17 8 9 13 17 12 17 -1 1 -6 14 -12 29 -6 16 -7 26 -2 22 6 -3 9 4
8 15 -1 11 -5 20 -10 20 -5 0 -4 7 4 16 10 13 10 17 0 24 -11 6 -11 9 0 13 12
5 12 6 0 6 -11 1 -11 4 0 18 11 13 11 17 2 20 -7 3 -13 9 -13 14 0 6 3 8 8 6
4 -3 7 19 7 49 0 30 -4 54 -9 54 -5 0 -3 7 5 16 10 13 10 17 0 24 -11 6 -11 9
0 13 11 4 11 6 1 6 -8 1 -10 6 -6 13 12 19 12 48 1 48 -5 0 -4 7 4 16 10 13
10 17 0 24 -11 6 -11 9 0 13 11 4 11 6 1 6 -8 1 -10 6 -6 13 12 19 12 48 1 48
-5 0 -4 7 4 16 10 13 10 17 0 24 -11 6 -11 9 0 13 11 4 11 6 1 6 -8 1 -10 6
-6 13 12 19 12 48 1 48 -5 0 -3 7 4 17 11 13 11 17 2 20 -7 3 -13 9 -13 14 0
6 4 8 9 5 4 -3 6 7 4 22 -6 41 -6 46 2 65 4 9 3 17 -2 17 -5 0 -9 9 -9 20 0
11 4 20 8 20 4 0 5 6 2 14 -4 11 -12 13 -30 5 -14 -5 -23 -5 -20 -1 6 10 -78
7 -94 -3 -5 -3 -10 -3 -10 2 0 4 -18 8 -40 8 -22 0 -40 -4 -40 -9 0 -6 -5 -5
-12 2 -8 8 -17 8 -31 1 -11 -6 -17 -7 -14 -2 7 10 -76 9 -93 -2 -5 -3 -10 -3
-10 2 0 4 -18 8 -40 8 -22 0 -40 -4 -40 -9 0 -6 -5 -5 -12 2 -8 8 -17 8 -31 1
-11 -6 -17 -7 -14 -2 3 4 -14 8 -38 8 -24 0 -41 -3 -39 -6 2 -3 -17 -3 -42 1
-24 4 -47 3 -50 -2 -3 -5 -12 -4 -20 3 -11 9 -14 9 -14 0 0 -8 -5 -9 -19 -1
-14 7 -22 7 -26 0 -5 -8 -11 -7 -21 1 -11 9 -14 9 -14 0 0 -8 -5 -9 -19 -1
-14 7 -22 7 -26 0 -5 -8 -11 -7 -21 1 -11 9 -14 9 -14 0z"/>
<path d="M5302 5670 c0 -14 -1 -29 -2 -35 -1 -5 -2 -1003 -1 -2217 l1 -2208
233 0 233 0 -1 363 c0 199 -3 367 -7 373 -4 6 -4 14 0 18 4 4 8 409 9 899 2
1317 4 1767 7 1767 2 0 11 -21 21 -47 10 -27 25 -64 33 -83 9 -19 17 -44 19
-55 2 -11 8 -24 13 -29 6 -6 10 -18 10 -28 0 -10 4 -18 10 -18 5 0 9 -3 9 -7
-4 -23 2 -43 11 -38 5 3 7 0 4 -9 -3 -8 1 -30 9 -48 20 -44 29 -70 33 -88 2
-8 8 -16 14 -18 5 -2 8 -7 5 -11 -4 -7 27 -99 55 -166 5 -11 14 -38 21 -60 7
-22 20 -58 30 -81 19 -44 20 -83 22 -1832 l1 -802 238 0 238 0 0 68 c0 37 1
1044 3 2239 l2 2171 -25 4 c-21 3 -411 2 -445 -1 -7 -1 -11 -195 -12 -577 -1
-317 -4 -579 -7 -581 -3 -3 -14 24 -25 59 -10 34 -24 62 -30 61 -6 -2 -8 3 -5
11 5 14 -53 192 -80 244 -8 16 -13 32 -10 34 2 3 -6 27 -18 54 -12 27 -23 59
-24 72 -2 13 -7 29 -11 35 -5 7 -24 58 -43 114 -19 56 -37 100 -40 98 -3 -2
-6 10 -7 27 0 17 -5 33 -9 37 -5 3 -10 13 -11 21 -1 8 -16 53 -33 100 -18 47
-38 105 -44 130 -9 32 -18 45 -29 44 -10 -1 -17 1 -17 5 0 7 -86 12 -247 15
l-102 2 1 -26z"/>
</g>
</svg>
